<svg width="152" height="164" viewBox="0 0 152 164" fill="none" xmlns="http://www.w3.org/2000/svg">
<g clip-path="url(#clip0_24762_309573)">
<path d="M91.6914 20.6029C94.8652 22.092 99.6601 18.4348 101.607 14.1999C101.699 13.9973 101.776 13.8038 101.841 13.6191C98.5666 11.3736 94.6193 9.7058 90.3193 8.53241C90.1909 8.74014 90.0761 8.95601 89.9755 9.17867C88.4226 12.5499 88.5205 19.1287 91.6914 20.6029Z" fill="#22375B"/>
<path d="M61.8967 58.7264C61.8832 58.5099 61.8363 58.2969 61.7575 58.095C61.6903 57.9401 61.6044 57.7585 61.4997 57.55C61.4005 57.3479 61.2515 57.1747 61.067 57.0467C60.863 56.9086 60.6502 56.7843 60.4299 56.6744C60.1484 56.543 59.8486 56.4557 59.5408 56.4153C59.148 56.3613 58.7519 56.3354 58.3555 56.3379L58.2014 57.6542C59.4302 57.6542 60.0445 58.0235 60.0445 58.7621C59.7564 58.6058 59.4497 58.4867 59.1318 58.4077C58.7027 58.301 58.2637 58.2401 57.822 58.226C57.7595 58.2136 57.6961 58.2076 57.6324 58.2082C57.2358 58.2015 56.844 58.2968 56.4944 58.4851C55.7041 58.8822 55.309 59.6506 55.309 60.7902V62.4818C55.4019 64.1555 56.3896 65.0966 58.2724 65.3051C58.4917 65.326 58.7614 65.3379 59.0845 65.3379C59.7957 65.3379 60.7489 65.2803 61.9442 65.1651V59.9921C61.9442 59.7151 61.9442 59.5007 61.9442 59.3518C61.9442 59.2029 61.9175 58.9944 61.8967 58.7264ZM60.0505 63.4735C59.7214 63.5387 59.3873 63.5736 59.0519 63.5778C57.8349 63.5778 57.2254 63.0467 57.2234 61.9845V61.0314C57.2093 60.89 57.2341 60.7474 57.2952 60.6192C57.3564 60.491 57.4516 60.3822 57.5702 60.3048C57.7383 60.2098 57.9285 60.1615 58.1213 60.1648C58.2135 60.1648 58.3055 60.1708 58.3968 60.1827C58.7169 60.2374 59.0314 60.3212 59.3364 60.4328C59.5881 60.5221 59.8279 60.6422 60.0505 60.7902V63.4735Z" fill="#22375B"/>
<path d="M67.4444 56.3379H67.1006C66.7072 56.3497 66.3177 56.4199 65.9448 56.5463L65.8085 56.4748H64.0511V65.1621H65.9448V59.5781C65.9298 59.308 66.0002 59.04 66.1461 58.8126C66.292 58.5852 66.5059 58.4101 66.7569 58.3124C66.9906 58.2099 67.2428 58.1572 67.4978 58.1575C67.8223 58.1645 68.1408 58.2471 68.4282 58.3987L68.8757 56.5463C68.4045 56.4421 68.0874 56.3795 67.9274 56.3557C67.7668 56.3414 67.6056 56.3355 67.4444 56.3379Z" fill="#22375B"/>
<path d="M73.8573 61.776L72.254 56.4749H70.1855L72.9416 65.1532H74.77L77.4757 56.4749H75.4249L73.8573 61.776Z" fill="#22375B"/>
<path d="M81.4051 56.32C80.5671 56.2791 79.7447 56.5578 79.1025 57.1003C78.8078 57.3782 78.5773 57.7178 78.4273 58.0949C78.2773 58.4721 78.2114 58.8777 78.2343 59.2832V62.8332C78.2343 63.6989 78.498 64.3451 79.0255 64.772C79.6069 65.1905 80.3114 65.4003 81.0258 65.3676H81.165C82.1675 65.3557 83.1487 65.075 84.0071 64.5546L83.3195 62.9077C82.4097 63.3693 81.6985 63.6016 81.1799 63.6016C81.0996 63.6016 81.0193 63.5956 80.9399 63.5837C80.4094 63.5033 80.1456 63.1668 80.1456 62.5801V62.0946L84.4367 61.8683V59.2356C84.4589 58.8428 84.3993 58.4497 84.2615 58.0815C84.1237 57.7132 83.9109 57.378 83.6367 57.0973C83.1032 56.5791 82.3593 56.32 81.4051 56.32ZM82.5254 60.1916L80.1546 60.3464V59.3071C80.1568 59.0259 80.2624 58.7554 80.4509 58.5476C80.5737 58.423 80.7224 58.3271 80.8863 58.2669C81.0503 58.2066 81.2253 58.1835 81.3992 58.1992C81.6934 58.1892 81.9812 58.2877 82.2082 58.4762C82.3197 58.5754 82.4073 58.6988 82.4643 58.8371C82.5213 58.9754 82.5463 59.1249 82.5372 59.2743L82.5254 60.1916Z" fill="#22375B"/>
<path d="M91.1431 60.2869C90.7617 60.0839 90.3654 59.9106 89.9577 59.7687C89.6038 59.645 89.2567 59.5029 88.9176 59.3428C88.6212 59.1999 88.4433 59.045 88.4078 58.8663C88.407 58.7665 88.3982 58.6668 88.3812 58.5685C88.3634 58.4583 88.4346 58.357 88.5887 58.2707C88.8112 58.1645 89.057 58.1173 89.3028 58.1337C89.9577 58.1337 90.4171 58.2647 90.6838 58.5327L91.2349 56.7637L91.0276 56.6446C90.8084 56.5325 90.5766 56.4475 90.3371 56.3914C89.9994 56.3035 89.6516 56.2604 89.3028 56.2634C88.2567 56.2634 87.4951 56.5284 87.012 57.0586C86.5912 57.4689 86.3493 58.03 86.3393 58.6191C86.3393 58.688 86.3453 58.7568 86.3571 58.8246C86.3921 59.3267 86.5817 59.8055 86.8994 60.1946C87.1813 60.5351 87.5427 60.8001 87.9514 60.9659C88.3485 61.1208 88.7397 61.2637 89.1368 61.3799C89.4928 61.4838 89.8285 61.6479 90.1296 61.8653C90.2577 61.956 90.3617 62.0772 90.432 62.218C90.5023 62.3588 90.5369 62.5149 90.5327 62.6724C90.5336 62.798 90.5076 62.9223 90.4565 63.0369C90.4053 63.1515 90.3303 63.2537 90.2364 63.3365C89.9893 63.5473 89.6708 63.654 89.3473 63.6343C89 63.66 88.6548 63.562 88.3723 63.3574C88.2789 63.2879 88.202 63.1984 88.1472 63.0954C88.0923 62.9924 88.0608 62.8784 88.0552 62.7617L86.1586 62.9523C86.1698 63.2915 86.2552 63.624 86.4089 63.9262C86.5626 64.2283 86.7807 64.4927 87.0476 64.7005C87.6107 65.174 88.3782 65.4093 89.3562 65.4093C90.4023 65.4093 91.1935 65.1472 91.7269 64.6231C91.9871 64.3782 92.1935 64.0813 92.3328 63.7515C92.4721 63.4218 92.5413 63.0664 92.5359 62.7081C92.5483 62.214 92.4246 61.7261 92.1782 61.2982C91.9319 60.8704 91.5726 60.5194 91.1402 60.2839L91.1431 60.2869Z" fill="#22375B"/>
<path d="M96.0892 62.8689V58.2588H97.3131L97.7251 56.4719H96.0892V53.0291H94.1599V56.4748H92.299V58.1873H94.1599V62.8689C94.1599 64.5069 95.0331 65.3438 96.7796 65.3795L97.3487 63.8547C97.0254 63.8734 96.7028 63.8045 96.4151 63.6552C96.2966 63.5646 96.2042 63.4442 96.147 63.3061C96.0897 63.1681 96.0698 63.0172 96.0892 62.8689Z" fill="#22375B"/>
<path d="M69.3943 47.2932C63.5445 49.1515 57.8131 52.1029 53.0449 54.9738V41.8848H51.2668V56.0609C49.3139 57.2849 47.5625 58.4672 46.0807 59.5126V41.8848H44.3027V60.7902C42.2016 62.3299 40.9599 63.3514 40.9214 63.3842L42.0534 64.7631C42.086 64.7363 42.895 64.0691 44.3027 63.0089V65.4123H46.0807V61.6985C47.5091 60.6681 49.2665 59.453 51.2668 58.1694V65.4123H53.0449V57.0526C57.8812 54.0744 63.8438 50.9235 69.9367 48.9907C84.3628 44.4133 105.068 46.1823 105.276 46.2002L105.433 44.4133C104.565 44.3448 84.1701 42.5996 69.3943 47.2932Z" fill="#22375B"/>
<path d="M104.588 10.4057C105.199 10.1704 105.88 9.39908 104.55 6.25116C104.108 5.20285 102.819 4.44342 101.468 3.67207C101.41 3.64426 101.361 3.60244 101.323 3.55042C101.286 3.49841 101.262 3.43784 101.254 3.37426C101.254 2.82628 101.023 2.48081 101.551 1.6499C101.969 0.967903 102.612 0.756454 102.736 0.524157C102.979 0.0148916 102.591 -0.0387153 102.259 0.023826C101.549 0.196325 100.877 0.49923 100.277 0.917274C99.1623 1.65288 98.8689 2.38253 98.8689 2.38253C98.8689 2.38253 96.7945 1.31635 94.9423 1.7869C91.7388 2.58504 91.5669 3.7912 91.7507 4.4047C96.2619 5.85985 100.575 7.8758 104.588 10.4057Z" fill="#22375B"/>
<path d="M111.286 36.7535L109.834 36.4557C111.289 29.3379 110.08 23.3309 106.245 18.6046C100.283 11.2575 87.8507 7.04337 72.1444 7.04337C63.5861 7.01807 55.1458 9.04903 47.527 12.9669C40.1694 16.7564 33.7612 22.1711 28.7831 28.8048L27.5977 27.9113C32.7139 21.0969 39.2995 15.5356 46.8602 11.6446C54.6865 7.61746 63.3578 5.53025 72.1503 5.55727C88.3041 5.55727 101.154 9.9709 107.398 17.6665C111.523 22.7532 112.833 29.1771 111.286 36.7535Z" fill="#22375B"/>
<path d="M72.7312 110.57C71.5458 107.068 65.4915 107.107 64.3061 105.617C63.1208 104.128 65.1952 103.682 64.3061 101.746C63.4171 99.8101 62.3799 101.001 61.4908 99.8101C60.6018 98.6188 62.3799 98.6188 61.4908 97.1297C60.6018 95.6406 60.75 96.9808 58.9719 96.2363C57.1938 95.4917 58.9718 94.3005 56.1566 94.1516C53.3413 94.0027 53.934 96.2363 51.6018 96.2363C49.2695 96.2363 51.1187 94.0027 49.6369 92.8114C48.1552 91.6201 48.3034 92.9603 46.5253 91.9179C44.7472 90.8756 46.9698 88.9398 45.3399 87.7485C43.71 86.5573 42.2283 88.0463 40.7466 86.7062C39.2648 85.366 38.8203 84.0258 40.7466 82.8346C42.6728 81.6433 43.2655 84.0258 44.4509 83.5791C45.6363 83.1324 46.0808 83.2813 47.2662 82.2389C48.4516 81.1966 50.6742 84.4725 51.5632 79.5586C52.4522 74.6446 38.3758 73.9001 36.4496 73.9001C34.5233 73.9001 33.1897 74.5642 32.5971 71.0708C32.1525 68.3905 35.8569 69.135 36.7459 68.2416C37.6349 67.3481 36.3014 67.0503 36.7459 65.5612C37.1904 64.0721 38.524 64.8167 38.3758 62.4342C38.2276 60.0516 33.7824 61.3918 33.9306 59.0093C34.0788 56.6267 39.6679 58.4732 40.1539 55.9537C40.6399 53.4342 39.6561 53.2197 35.6732 50.9682C31.6903 48.7168 26.0034 50.2505 24.8565 44.9613C24.5424 43.5169 25.8286 35.8928 27.5237 32.1046C28.7441 29.4973 30.1951 27.0055 31.8592 24.6592C31.8592 24.6592 28.1845 25.6033 18.9592 38.457C16.8433 41.4054 18.1176 40.8395 17.6257 41.8819C17.059 43.1431 16.5642 44.4357 16.1439 45.7535L14.3659 49.3273C12.5878 52.9011 10.0688 55.1347 9.32797 58.4107C8.58711 61.6866 10.0688 61.9845 10.9579 63.7714C11.8469 65.5582 10.5134 65.8561 8.88346 68.5364C7.25355 71.2168 5.12875 77.322 6.36452 79.5556C7.60028 81.7892 8.73528 80.8958 10.3652 79.2578C11.0735 78.546 11.8114 77.6943 12.4159 76.9557C12.4874 76.8679 12.5868 76.8077 12.6974 76.7853C12.808 76.7628 12.9228 76.7794 13.0226 76.8323C13.1224 76.8853 13.2008 76.9713 13.2447 77.0757C13.2886 77.1801 13.2952 77.2966 13.2635 77.4054C13.1538 77.8015 13.0264 78.2273 12.8841 78.6622C12.2914 80.449 12.1433 81.0238 13.9213 81.1936C14.8637 81.2859 15.4831 80.6218 15.8505 80.2793C15.9128 80.2209 15.9906 80.1819 16.0745 80.1672C16.1584 80.1525 16.2448 80.1627 16.3231 80.1965C16.4013 80.2303 16.4681 80.2863 16.5152 80.3575C16.5624 80.4288 16.5878 80.5124 16.5884 80.598L16.4403 82.3849C16.2921 84.1717 15.8476 84.6185 16.8848 86.5543C17.922 88.4901 19.1074 88.0434 19.4037 89.8303C19.7001 91.6171 18.0702 93.8508 17.033 97.2757C15.9958 100.701 12.5878 107.848 17.7738 111.124C22.9599 114.4 26.3679 103.679 27.7014 103.828C29.035 103.977 26.9606 109.486 28.1459 109.486C29.3313 109.486 30.6649 106.359 31.9984 106.061C33.332 105.763 34.221 110.38 35.8509 110.975C37.4808 111.571 39.2589 109.486 40.8888 109.337C42.5187 109.188 41.3333 111.72 42.9632 111.72C44.5931 111.72 42.9632 111.72 44.5931 111.571C46.223 111.422 47.4084 115.294 49.631 115.442C51.8536 115.591 52.1499 114.4 53.6317 114.102C55.1134 113.804 56.1507 116.997 57.7806 116.997C58.2566 117.006 58.7283 116.904 59.1586 116.699C60.0586 116.207 60.7334 115.383 61.0404 114.4C61.0773 114.193 61.1815 114.005 61.3367 113.864C61.4639 113.773 61.6087 113.709 61.7619 113.678C61.9151 113.647 62.0732 113.648 62.2258 113.682L69.9693 114.108C70.5633 114.009 71.1357 113.808 71.6614 113.513C64.2816 113.474 56.9842 111.95 50.2 109.031C43.4159 106.112 37.2823 101.857 32.1614 96.5162C32.2214 96.6603 32.2709 96.8087 32.3096 96.96C32.3477 97.1567 32.3477 97.3589 32.3096 97.5556C32.2938 97.7442 32.2988 97.934 32.3244 98.1215C32.3748 98.4997 32.4933 98.8749 32.5111 99.271C32.524 99.4698 32.5171 99.6693 32.4904 99.8667C32.4514 100.055 32.4266 100.246 32.4163 100.438C32.4244 100.824 32.5262 101.201 32.7127 101.537C32.8928 101.881 33.1202 102.196 33.3883 102.476C33.1125 102.203 32.877 101.892 32.6889 101.552C32.4915 101.213 32.3795 100.831 32.3629 100.438C32.3684 100.244 32.3892 100.049 32.4252 99.8577C32.4429 99.6675 32.4429 99.4761 32.4252 99.2859C32.3985 98.9017 32.274 98.5354 32.2118 98.1453C32.1809 97.9484 32.171 97.7487 32.1822 97.5496C32.2136 97.3657 32.2076 97.1772 32.1644 96.9957C32.0791 96.7013 31.9587 96.4183 31.8058 96.1529C29.4563 93.6585 27.3431 90.9496 25.4937 88.0612C25.6216 89.2195 25.6354 90.3876 25.5351 91.5487C25.4751 92.3357 25.2743 93.1055 24.9424 93.821C24.5568 94.5211 24.0189 95.1248 23.3689 95.587C22.7466 96.0606 22.0649 96.4805 21.8012 97.1923C21.5374 97.904 21.6026 98.6635 21.7034 99.417C21.806 100.177 21.999 100.922 22.2783 101.636C22.5506 102.36 22.9292 103.04 23.4014 103.652L23.3807 103.673C22.8352 103.104 22.3937 102.442 22.0768 101.719C21.7529 100.999 21.5267 100.239 21.4041 99.4586C21.3401 99.0649 21.3094 98.6664 21.3122 98.2674C21.3105 97.8589 21.3891 97.4541 21.5433 97.0761C21.7113 96.6987 21.9663 96.3669 22.2872 96.1082C22.5835 95.8491 22.9243 95.6317 23.2355 95.4024C23.8717 94.9701 24.4025 94.3989 24.7884 93.7316C25.1134 93.0357 25.3141 92.2877 25.3811 91.5219C25.5052 90.3342 25.5121 89.1371 25.4018 87.9481C24.5898 86.6764 23.8223 85.3779 23.114 84.0467C19.6853 77.5602 17.4538 70.3471 17.0122 63.006C16.8524 63.9182 16.5713 64.8047 16.1766 65.6416L16.0076 65.9663C15.9513 66.0735 15.8773 66.1688 15.8091 66.2641C15.6771 66.4743 15.5284 66.6735 15.3646 66.8597C15.0316 67.2222 14.6565 67.5432 14.2473 67.8157C13.8412 68.055 13.4625 68.3387 13.1182 68.6615C12.8328 69.0118 12.6629 69.4427 12.6323 69.8945C12.4501 70.8252 12.432 71.7808 12.5789 72.7177H12.5523C12.2565 71.7891 12.1834 70.8033 12.3389 69.8408C12.37 69.5945 12.4225 69.3513 12.4959 69.1142C12.5821 68.8671 12.7218 68.6423 12.9049 68.456C13.2762 68.1294 13.6827 67.8457 14.117 67.6102C14.5203 67.3589 14.8916 67.0588 15.2223 66.7168C15.3851 66.5457 15.5347 66.3625 15.6698 66.1688C15.735 66.0705 15.812 65.9782 15.8713 65.871L16.0462 65.5731C16.4844 64.727 16.8073 63.8255 17.0063 62.8928C16.8412 60.0884 16.9503 57.2744 17.3323 54.4914C17.5298 53.2267 17.7738 51.9759 18.0642 50.7389C18.3606 49.503 18.7103 48.2819 19.0837 47.0728C19.8402 44.6599 20.7306 42.2916 21.7508 39.9788C22.2546 38.8203 22.7969 37.6827 23.36 36.5569C23.923 35.4312 24.5128 34.3144 25.1381 33.2244C26.3741 31.0298 27.7604 28.9241 29.2869 26.9226L29.4825 27.0536C26.9752 31.3458 24.8642 35.8597 23.1762 40.5387C22.0113 43.7036 21.0618 46.9443 20.3343 50.2386C20.6833 51.3915 21.0958 52.5239 21.57 53.6307C21.8697 54.3289 22.2756 54.9759 22.7732 55.5487C23.2827 56.1163 23.9775 56.4819 24.732 56.5791C24.9161 56.6022 25.1029 56.586 25.2803 56.5314C25.3692 56.5046 25.4551 56.4689 25.5529 56.4362C25.6583 56.3969 25.7734 56.3916 25.8819 56.4213C26.0702 56.502 26.236 56.6277 26.3649 56.7876C26.4894 56.9186 26.5991 57.0586 26.7087 57.1986C26.7597 57.085 26.8191 56.9755 26.8865 56.871C26.9857 56.7242 27.0978 56.5867 27.2214 56.46C27.4653 56.2116 27.7356 55.9909 28.0274 55.8018C28.3177 55.6166 28.6208 55.4523 28.9343 55.3104C29.2453 55.16 29.5697 55.0393 29.9032 54.95C30.0743 54.9036 30.2506 54.8796 30.4278 54.8786C30.6078 54.8858 30.7835 54.9358 30.9405 55.0245C31.0765 55.119 31.2265 55.1914 31.385 55.2389C31.5474 55.2652 31.7134 55.2601 31.874 55.224C32.5436 55.0724 33.2395 55.0837 33.9039 55.2568C33.2398 55.1071 32.5497 55.1204 31.8918 55.2955C31.7205 55.3391 31.5426 55.3503 31.3673 55.3283C31.1979 55.2843 31.0361 55.215 30.8871 55.1228C30.7449 55.0465 30.5861 55.0066 30.4248 55.0066C30.261 55.0141 30.0987 55.0421 29.9418 55.09C29.6215 55.1892 29.311 55.3178 29.0142 55.4742C28.715 55.623 28.4269 55.7932 28.1519 55.9835C27.8823 56.1723 27.6339 56.39 27.411 56.6327C27.197 56.8597 27.0352 57.1312 26.9369 57.4279H26.8746C27.0643 57.6751 27.251 57.9193 27.4525 58.1516C27.6887 58.4524 27.9844 58.7008 28.3208 58.8812C28.6646 59.054 29.0261 59.2088 29.361 59.4054C29.6959 59.6019 30.0129 59.8253 30.3567 60.001C30.696 60.1881 31.0751 60.2902 31.462 60.2988C31.6553 60.3006 31.846 60.2538 32.0168 60.1628C32.1876 60.0718 32.333 59.9394 32.44 59.7776C32.3351 59.9427 32.1905 60.0786 32.0196 60.1728C31.8487 60.267 31.6569 60.3165 31.462 60.3167C31.0692 60.3101 30.6839 60.2079 30.3389 60.0189C29.9863 59.8491 29.6751 59.6198 29.3313 59.4411C28.9876 59.2624 28.6379 59.1046 28.2852 58.9348C27.9365 58.7539 27.628 58.5036 27.3784 58.1992C27.1414 57.9371 26.925 57.6572 26.7087 57.3832H26.6464C26.6473 57.3673 26.6473 57.3514 26.6464 57.3356V57.3147C26.5249 57.1658 26.4034 57.0169 26.273 56.8799C26.1552 56.7408 26.0072 56.6307 25.8404 56.5582C25.6892 56.5046 25.5173 56.6208 25.3247 56.6774C25.1333 56.7378 24.9318 56.7591 24.732 56.7399C24.3352 56.695 23.9492 56.5811 23.5911 56.4034C23.2385 56.2198 22.9189 55.9783 22.6457 55.6886C22.124 55.1063 21.6952 54.4462 21.3745 53.732C20.9408 52.7729 20.5599 51.7906 20.2335 50.7896C19.9609 52.1208 19.7357 53.455 19.5667 54.7952C19.4182 55.9919 19.334 57.1959 19.3148 58.4017C19.3148 58.5685 19.3148 58.7412 19.3148 58.911C19.6618 59.6031 20.0437 60.277 20.4587 60.9302C20.8356 61.5132 21.2493 62.0713 21.6974 62.6009C22.1411 63.1327 22.6376 63.6177 23.1792 64.0483C24.2545 64.9394 25.5639 65.498 26.9487 65.6565C27.6501 65.736 28.3573 65.753 29.0617 65.7072C29.4143 65.6863 29.767 65.6536 30.1196 65.6119L30.6471 65.5374L30.9109 65.4927L31.1924 65.4421H31.2102L32.7749 66.0139H32.7926L34.2151 68.0986L32.7156 66.0824L31.1686 65.5851L31.062 65.6119L30.9287 65.6416L30.6649 65.6953C30.49 65.731 30.3122 65.7637 30.1344 65.7935C29.7788 65.8501 29.4232 65.8978 29.0646 65.9335C28.344 66.009 27.6182 66.0219 26.8954 65.9722C25.4232 65.8605 24.014 65.326 22.8354 64.4325C22.247 64.0029 21.7039 63.5139 21.2144 62.9732C20.7226 62.4412 20.2662 61.8771 19.8483 61.2846C19.6704 61.0315 19.4986 60.7694 19.3326 60.5073C19.3504 61.0076 19.3741 61.5109 19.4037 61.9964C19.5532 64.4296 19.8501 66.8513 20.2928 69.2482C20.6882 71.3605 21.2027 73.4486 21.8338 75.5023C22.2427 76.2201 22.6843 76.9199 23.1614 77.587C23.7695 78.4552 24.4496 79.2702 25.1943 80.0232C25.917 80.7864 26.778 81.404 27.7311 81.8428C28.6943 82.25 29.7372 82.4313 30.7805 82.3729C31.3012 82.3434 31.818 82.2656 32.3244 82.1407C32.8304 82.0135 33.3258 81.8472 33.8062 81.6433C34.0521 81.5539 34.2803 81.4289 34.5203 81.3217C34.7604 81.2144 35.0182 81.0894 35.2701 80.9792C35.522 80.869 35.7887 80.7886 36.0495 80.7082C36.3103 80.6277 36.577 80.5473 36.8407 80.4848C37.9024 80.2392 38.9831 80.0857 40.0709 80.0262C41.1502 79.9582 42.2333 79.9751 43.31 80.0768V80.1363C41.1793 80.2227 39.0631 80.529 36.9949 81.0506C36.74 81.1132 36.494 81.1996 36.2392 81.274C35.9843 81.3485 35.7502 81.4527 35.5042 81.542L34.7871 81.8399C34.5352 81.9471 34.2922 82.0751 34.0284 82.1645C33.5139 82.3631 32.9848 82.5214 32.4459 82.638C31.9041 82.7481 31.3538 82.8109 30.8012 82.8256C30.2467 82.8342 29.6928 82.7873 29.1476 82.6856C28.6047 82.5782 28.0765 82.4063 27.574 82.1734C26.5942 81.6909 25.7151 81.0248 24.9839 80.2108C24.2564 79.4233 23.5989 78.5733 23.0191 77.6704C22.6418 77.0947 22.2912 76.506 21.9672 75.9044C22.0116 76.0444 22.0501 76.1843 22.0975 76.3243C22.8639 78.6754 23.8009 80.9668 24.901 83.18C26.6437 86.6931 28.7729 89.9986 31.2487 93.0348C32.3866 93.407 33.5187 93.7912 34.6655 94.1218C35.9494 94.5213 37.2682 94.7975 38.604 94.9467C39.2658 95.0127 39.9318 95.0236 40.5954 94.9795C40.9273 94.9795 41.2474 94.9229 41.5853 94.8931C41.9231 94.8633 42.2698 94.8306 42.6106 94.8127C43.2971 94.7794 43.9849 94.7894 44.6702 94.8425C45.3599 94.882 46.0405 95.0204 46.6913 95.2535L46.6735 95.3071C46.3404 95.2629 46.0048 95.2411 45.6689 95.2416C45.3311 95.2416 44.9962 95.2416 44.6613 95.2416C43.9915 95.2674 43.3228 95.315 42.655 95.3845L41.6534 95.4858C41.3156 95.5096 40.96 95.5453 40.6162 95.5453C39.9221 95.5477 39.2288 95.4989 38.5418 95.3994C37.1893 95.1884 35.8597 94.8493 34.5707 94.3868C33.4861 94.0056 32.4222 93.5798 31.3584 93.1598C35.1101 97.7511 39.5849 101.694 44.605 104.831C52.8694 109.986 62.3316 112.88 72.0525 113.224C72.7134 112.703 73.1697 111.866 72.7312 110.57Z" fill="#22375B"/>
<path d="M74.2841 3.03772C65.3248 3.0386 56.498 5.2119 48.553 9.37312C40.608 13.5344 33.7793 19.5606 28.6467 26.9404C30.8723 24.9153 31.8562 24.6621 31.8562 24.6621C31.8562 24.6621 30.7449 26.1989 29.5032 28.3104C34.476 20.9832 41.1536 14.9868 48.956 10.842C56.7584 6.69727 65.4497 4.52943 74.2751 4.5268C104.182 4.5268 128.506 28.9775 128.506 59.0271C128.506 89.0768 104.176 113.527 74.2751 113.527C73.4157 113.527 72.5594 113.504 71.7088 113.465C71.1661 113.782 70.5707 113.998 69.9515 114.102L62.208 113.676H62.0924C66.0915 114.575 70.1771 115.029 74.2751 115.028C104.997 115.028 129.988 89.9077 129.988 59.039C129.988 28.1704 105.006 3.03772 74.2841 3.03772Z" fill="#22375B"/>
</g>
<path d="M28.59 142.09L22.53 163H19.47L14.61 146.17L9.57 163L6.54 163.03L0.69 142.09H3.6L8.16 159.82L13.2 142.09H16.26L21.06 159.76L25.65 142.09H28.59ZM46.5776 154.15C46.5776 154.67 46.5476 155.22 46.4876 155.8H33.3476C33.4476 157.42 33.9976 158.69 34.9976 159.61C36.0176 160.51 37.2476 160.96 38.6876 160.96C39.8676 160.96 40.8476 160.69 41.6276 160.15C42.4276 159.59 42.9876 158.85 43.3076 157.93H46.2476C45.8076 159.51 44.9276 160.8 43.6076 161.8C42.2876 162.78 40.6476 163.27 38.6876 163.27C37.1276 163.27 35.7276 162.92 34.4876 162.22C33.2676 161.52 32.3076 160.53 31.6076 159.25C30.9076 157.95 30.5576 156.45 30.5576 154.75C30.5576 153.05 30.8976 151.56 31.5776 150.28C32.2576 149 33.2076 148.02 34.4276 147.34C35.6676 146.64 37.0876 146.29 38.6876 146.29C40.2476 146.29 41.6276 146.63 42.8276 147.31C44.0276 147.99 44.9476 148.93 45.5876 150.13C46.2476 151.31 46.5776 152.65 46.5776 154.15ZM43.7576 153.58C43.7576 152.54 43.5276 151.65 43.0676 150.91C42.6076 150.15 41.9776 149.58 41.1776 149.2C40.3976 148.8 39.5276 148.6 38.5676 148.6C37.1876 148.6 36.0076 149.04 35.0276 149.92C34.0676 150.8 33.5176 152.02 33.3776 153.58H43.7576ZM52.9111 140.8V163H50.1811V140.8H52.9111ZM56.5439 154.75C56.5439 153.05 56.8839 151.57 57.5639 150.31C58.2439 149.03 59.1839 148.04 60.3839 147.34C61.6039 146.64 62.9939 146.29 64.5539 146.29C66.5739 146.29 68.2339 146.78 69.5339 147.76C70.8539 148.74 71.7239 150.1 72.1439 151.84H69.2039C68.9239 150.84 68.3739 150.05 67.5539 149.47C66.7539 148.89 65.7539 148.6 64.5539 148.6C62.9939 148.6 61.7339 149.14 60.7739 150.22C59.8139 151.28 59.3339 152.79 59.3339 154.75C59.3339 156.73 59.8139 158.26 60.7739 159.34C61.7339 160.42 62.9939 160.96 64.5539 160.96C65.7539 160.96 66.7539 160.68 67.5539 160.12C68.3539 159.56 68.9039 158.76 69.2039 157.72H72.1439C71.7039 159.4 70.8239 160.75 69.5039 161.77C68.1839 162.77 66.5339 163.27 64.5539 163.27C62.9939 163.27 61.6039 162.92 60.3839 162.22C59.1839 161.52 58.2439 160.53 57.5639 159.25C56.8839 157.97 56.5439 156.47 56.5439 154.75ZM82.9566 163.27C81.4166 163.27 80.0166 162.92 78.7566 162.22C77.5166 161.52 76.5366 160.53 75.8166 159.25C75.1166 157.95 74.7666 156.45 74.7666 154.75C74.7666 153.07 75.1266 151.59 75.8466 150.31C76.5866 149.01 77.5866 148.02 78.8466 147.34C80.1066 146.64 81.5166 146.29 83.0766 146.29C84.6366 146.29 86.0466 146.64 87.3066 147.34C88.5666 148.02 89.5566 149 90.2766 150.28C91.0166 151.56 91.3866 153.05 91.3866 154.75C91.3866 156.45 91.0066 157.95 90.2466 159.25C89.5066 160.53 88.4966 161.52 87.2166 162.22C85.9366 162.92 84.5166 163.27 82.9566 163.27ZM82.9566 160.87C83.9366 160.87 84.8566 160.64 85.7166 160.18C86.5766 159.72 87.2666 159.03 87.7866 158.11C88.3266 157.19 88.5966 156.07 88.5966 154.75C88.5966 153.43 88.3366 152.31 87.8166 151.39C87.2966 150.47 86.6166 149.79 85.7766 149.35C84.9366 148.89 84.0266 148.66 83.0466 148.66C82.0466 148.66 81.1266 148.89 80.2866 149.35C79.4666 149.79 78.8066 150.47 78.3066 151.39C77.8066 152.31 77.5566 153.43 77.5566 154.75C77.5566 156.09 77.7966 157.22 78.2766 158.14C78.7766 159.06 79.4366 159.75 80.2566 160.21C81.0766 160.65 81.9766 160.87 82.9566 160.87ZM114.746 146.26C116.026 146.26 117.166 146.53 118.166 147.07C119.166 147.59 119.956 148.38 120.536 149.44C121.116 150.5 121.406 151.79 121.406 153.31V163H118.706V153.7C118.706 152.06 118.296 150.81 117.476 149.95C116.676 149.07 115.586 148.63 114.206 148.63C112.786 148.63 111.656 149.09 110.816 150.01C109.976 150.91 109.556 152.22 109.556 153.94V163H106.856V153.7C106.856 152.06 106.446 150.81 105.626 149.95C104.826 149.07 103.736 148.63 102.356 148.63C100.936 148.63 99.806 149.09 98.966 150.01C98.126 150.91 97.706 152.22 97.706 153.94V163H94.976V146.56H97.706V148.93C98.246 148.07 98.966 147.41 99.866 146.95C100.786 146.49 101.796 146.26 102.896 146.26C104.276 146.26 105.496 146.57 106.556 147.19C107.616 147.81 108.406 148.72 108.926 149.92C109.386 148.76 110.146 147.86 111.206 147.22C112.266 146.58 113.446 146.26 114.746 146.26ZM140.884 154.15C140.884 154.67 140.854 155.22 140.794 155.8H127.654C127.754 157.42 128.304 158.69 129.304 159.61C130.324 160.51 131.554 160.96 132.994 160.96C134.174 160.96 135.154 160.69 135.934 160.15C136.734 159.59 137.294 158.85 137.614 157.93H140.554C140.114 159.51 139.234 160.8 137.914 161.8C136.594 162.78 134.954 163.27 132.994 163.27C131.434 163.27 130.034 162.92 128.794 162.22C127.574 161.52 126.614 160.53 125.914 159.25C125.214 157.95 124.864 156.45 124.864 154.75C124.864 153.05 125.204 151.56 125.884 150.28C126.564 149 127.514 148.02 128.734 147.34C129.974 146.64 131.394 146.29 132.994 146.29C134.554 146.29 135.934 146.63 137.134 147.31C138.334 147.99 139.254 148.93 139.894 150.13C140.554 151.31 140.884 152.65 140.884 154.15ZM138.064 153.58C138.064 152.54 137.834 151.65 137.374 150.91C136.914 150.15 136.284 149.58 135.484 149.2C134.704 148.8 133.834 148.6 132.874 148.6C131.494 148.6 130.314 149.04 129.334 149.92C128.374 150.8 127.824 152.02 127.684 153.58H138.064ZM148.028 142.09L147.698 157.09H145.418L145.088 142.09H148.028ZM146.678 163.18C146.158 163.18 145.718 163 145.358 162.64C144.998 162.28 144.818 161.84 144.818 161.32C144.818 160.8 144.998 160.36 145.358 160C145.718 159.64 146.158 159.46 146.678 159.46C147.178 159.46 147.598 159.64 147.938 160C148.298 160.36 148.478 160.8 148.478 161.32C148.478 161.84 148.298 162.28 147.938 162.64C147.598 163 147.178 163.18 146.678 163.18Z" fill="#22375B"/>
<defs>
<clipPath id="clip0_24762_309573">
<rect width="124" height="117" fill="white" transform="translate(6)"/>
</clipPath>
</defs>
</svg>
