<svg width="105" height="98" viewBox="0 0 105 98" fill="none" xmlns="http://www.w3.org/2000/svg">
<g clip-path="url(#clip0_24757_309375)">
<path d="M71.9562 17.2572C74.6214 18.5044 78.6477 15.4412 80.2826 11.8939C80.3598 11.7243 80.4245 11.5622 80.4792 11.4075C77.7295 9.52663 74.4148 8.12969 70.8041 7.14685C70.6963 7.32085 70.5998 7.50166 70.5154 7.68816C69.2114 10.512 69.2935 16.0224 71.9562 17.2572Z" fill="#345587"/>
<path d="M46.9371 49.1896C46.9258 49.0083 46.8864 48.8299 46.8202 48.6607C46.7638 48.531 46.6916 48.3789 46.6037 48.2043C46.5204 48.035 46.3953 47.8899 46.2404 47.7827C46.069 47.667 45.8903 47.5629 45.7054 47.4709C45.469 47.3608 45.2172 47.2876 44.9588 47.2538C44.629 47.2086 44.2963 47.1869 43.9634 47.189L43.834 48.2916C44.8659 48.2916 45.3818 48.6009 45.3818 49.2195C45.1398 49.0886 44.8822 48.9889 44.6153 48.9227C44.255 48.8333 43.8864 48.7823 43.5154 48.7705C43.463 48.7601 43.4097 48.7551 43.3563 48.7555C43.0232 48.7499 42.6942 48.8298 42.4007 48.9875C41.7371 49.3201 41.4053 49.9637 41.4053 50.9183V52.3352C41.4832 53.7371 42.3127 54.5254 43.8937 54.7C44.0778 54.7175 44.3043 54.7274 44.5756 54.7274C45.1728 54.7274 45.9732 54.6792 46.9769 54.5828V50.2498C46.9769 50.0178 46.9769 49.8382 46.9769 49.7134C46.9769 49.5887 46.9545 49.4141 46.9371 49.1896ZM45.3868 53.1659C45.1104 53.2204 44.8298 53.2496 44.5482 53.2532C43.5263 53.2532 43.0145 52.8083 43.0128 51.9186V51.1204C43.0009 51.0019 43.0218 50.8824 43.0731 50.7751C43.1245 50.6677 43.2044 50.5766 43.304 50.5117C43.4452 50.4322 43.6049 50.3917 43.7668 50.3944C43.8442 50.3945 43.9214 50.3995 43.9982 50.4094C44.2669 50.4553 44.531 50.5254 44.7871 50.619C44.9985 50.6937 45.1998 50.7943 45.3868 50.9183V53.1659Z" fill="#345587"/>
<path d="M51.5954 47.189H51.3067C50.9764 47.1989 50.6494 47.2577 50.3363 47.3636L50.2218 47.3037H48.7461V54.5803H50.3363V49.903C50.3236 49.6768 50.3828 49.4523 50.5053 49.2618C50.6278 49.0714 50.8074 48.9247 51.0182 48.8428C51.2144 48.757 51.4262 48.7128 51.6403 48.7131C51.9128 48.719 52.1802 48.7881 52.4216 48.9152L52.7974 47.3636C52.4017 47.2763 52.1354 47.2239 52.001 47.2039C51.8662 47.192 51.7308 47.187 51.5954 47.189V47.189Z" fill="#345587"/>
<path d="M56.9807 51.744L55.6344 47.3037H53.8975L56.2117 54.5728H57.7471L60.0191 47.3037H58.2971L56.9807 51.744Z" fill="#345587"/>
<path d="M63.3186 47.174C62.615 47.1398 61.9244 47.3732 61.3851 47.8276C61.1376 48.0604 60.9441 48.3448 60.8181 48.6607C60.6922 48.9766 60.6369 49.3164 60.6561 49.6561V52.6295C60.6561 53.3546 60.8775 53.8959 61.3205 54.2535C61.8086 54.6041 62.4003 54.7798 63.0002 54.7524H63.1171C63.9588 54.7424 64.7828 54.5073 65.5036 54.0714L64.9262 52.6919C64.1622 53.0786 63.5651 53.2731 63.1296 53.2731C63.0621 53.2731 62.9947 53.2681 62.928 53.2582C62.4826 53.1908 62.261 52.9089 62.261 52.4175V52.0109L65.8643 51.8213V49.6162C65.883 49.2872 65.8329 48.9579 65.7172 48.6495C65.6015 48.341 65.4228 48.0602 65.1925 47.8251C64.7446 47.391 64.1199 47.174 63.3186 47.174ZM64.2594 50.4169L62.2686 50.5466V49.676C62.2705 49.4405 62.3591 49.214 62.5174 49.0399C62.6205 48.9355 62.7454 48.8552 62.883 48.8048C63.0207 48.7543 63.1677 48.7349 63.3137 48.7481C63.5608 48.7397 63.8024 48.8222 63.993 48.98C64.0867 49.0631 64.1602 49.1665 64.2081 49.2824C64.2559 49.3982 64.2769 49.5234 64.2693 49.6486L64.2594 50.4169Z" fill="#345587"/>
<path d="M71.4961 50.4967C71.1759 50.3267 70.8431 50.1816 70.5007 50.0626C70.2036 49.9591 69.9121 49.84 69.6273 49.7059C69.3785 49.5862 69.2291 49.4565 69.1993 49.3068C69.1986 49.2232 69.1912 49.1397 69.1769 49.0573C69.162 48.965 69.2217 48.8802 69.3511 48.8079C69.538 48.719 69.7444 48.6795 69.9508 48.6931C70.5007 48.6931 70.8865 48.8029 71.1104 49.0274L71.5733 47.5457L71.3991 47.4459C71.2151 47.352 71.0204 47.2808 70.8193 47.2338C70.5357 47.1602 70.2437 47.1241 69.9508 47.1266C69.0723 47.1266 68.4328 47.3486 68.0272 47.7926C67.6739 48.1363 67.4707 48.6063 67.4623 49.0998C67.4623 49.1575 67.4673 49.215 67.4773 49.2719C67.5067 49.6925 67.6658 50.0935 67.9327 50.4194C68.1694 50.7046 68.4728 50.9266 68.816 51.0654C69.1495 51.1952 69.478 51.3149 69.8114 51.4122C70.1103 51.4992 70.3923 51.6367 70.6451 51.8188C70.7527 51.8948 70.84 51.9963 70.899 52.1142C70.9581 52.2322 70.9871 52.3629 70.9836 52.4948C70.9843 52.6 70.9625 52.7041 70.9196 52.8001C70.8766 52.8961 70.8136 52.9817 70.7347 53.0511C70.5273 53.2276 70.2598 53.317 69.9882 53.3005C69.6966 53.322 69.4067 53.2399 69.1695 53.0686C69.091 53.0103 69.0265 52.9354 68.9804 52.8491C68.9344 52.7628 68.9079 52.6674 68.9031 52.5696L67.3105 52.7293C67.32 53.0134 67.3917 53.2919 67.5208 53.545C67.6498 53.7981 67.8329 54.0195 68.0571 54.1936C68.5299 54.5902 69.1744 54.7873 69.9956 54.7873C70.874 54.7873 71.5385 54.5678 71.9864 54.1287C72.2049 53.9236 72.3781 53.6749 72.4951 53.3987C72.6121 53.1225 72.6703 52.8248 72.6657 52.5247C72.6761 52.1109 72.5722 51.7022 72.3654 51.3438C72.1585 50.9855 71.8568 50.6914 71.4937 50.4942L71.4961 50.4967Z" fill="#345587"/>
<path d="M75.6496 52.6595V48.7979H76.6773L77.0232 47.3012H75.6496V44.4175H74.0295V47.3037H72.4668V48.7381H74.0295V52.6595C74.0295 54.0314 74.7627 54.7324 76.2293 54.7623L76.7072 53.4851C76.4357 53.5008 76.1648 53.4431 75.9232 53.318C75.8237 53.2422 75.7461 53.1413 75.698 53.0256C75.65 52.91 75.6333 52.7837 75.6496 52.6595V52.6595Z" fill="#345587"/>
<path d="M53.2334 39.6131C48.3212 41.1697 43.5085 43.6417 39.5045 46.0465V35.083H38.0114V46.957C36.3715 47.9822 34.9009 48.9725 33.6566 49.8481V35.083H32.1635V50.9183C30.3992 52.2079 29.3566 53.0636 29.3242 53.091L30.2748 54.246C30.3021 54.2235 30.9815 53.6647 32.1635 52.7767V54.7898H33.6566V51.6791C34.8561 50.816 36.3317 49.7982 38.0114 48.7231V54.7898H39.5045V47.7876C43.5657 45.2931 48.5726 42.6539 53.6889 41.035C65.8027 37.2009 83.1897 38.6826 83.3638 38.6976L83.4957 37.2009C82.7666 37.1435 65.641 35.6817 53.2334 39.6131Z" fill="#345587"/>
<path d="M82.7868 8.71587C83.2994 8.5188 83.8718 7.87272 82.7544 5.236C82.3837 4.35793 81.3012 3.72182 80.1665 3.07574C80.1182 3.05244 80.0765 3.01742 80.0452 2.97385C80.0139 2.93028 79.994 2.87955 79.9872 2.82629C79.9872 2.36729 79.7931 2.07793 80.2361 1.38196C80.587 0.810709 81.127 0.633598 81.2315 0.439025C81.4355 0.0124608 81.1096 -0.0324408 80.8309 0.0199443C80.2347 0.164431 79.6703 0.418146 79.1661 0.768303C78.2304 1.38445 77.9841 1.99561 77.9841 1.99561C77.9841 1.99561 76.2421 1.10257 74.6869 1.4967C71.9968 2.16524 71.8525 3.17552 72.0068 3.68939C75.7949 4.90824 79.4163 6.59681 82.7868 8.71587V8.71587Z" fill="#345587"/>
<path d="M88.4101 30.7849L87.1908 30.5355C88.4126 24.5736 87.3973 19.5421 84.1773 15.5833C79.1705 9.42928 68.7312 5.89953 55.5424 5.89953C48.3558 5.87834 41.2683 7.57948 34.8707 10.8611C28.6924 14.0352 23.3113 18.5706 19.1311 24.127L18.1357 23.3787C22.4319 17.6709 27.9619 13.0127 34.3108 9.75357C40.8827 6.38039 48.1641 4.63213 55.5473 4.65476C69.112 4.65476 79.902 8.35165 85.1452 14.7975C88.6091 19.0582 89.7091 24.4389 88.4101 30.7849Z" fill="#345587"/>
<path d="M56.0357 92.6143C55.0403 89.6807 49.9565 89.7132 48.9611 88.4659C47.9657 87.2186 49.7076 86.8445 48.9611 85.223C48.2146 83.6016 47.3436 84.5994 46.597 83.6016C45.8505 82.6038 47.3436 82.6038 46.597 81.3565C45.8505 80.1092 45.9749 81.2318 44.4819 80.6081C42.9888 79.9845 44.4818 78.9867 42.1177 78.862C39.7537 78.7372 40.2514 80.6081 38.293 80.6081C36.3346 80.6081 37.8873 78.7372 36.6431 77.7394C35.3989 76.7416 35.5233 77.8642 34.0302 76.9911C32.5371 76.118 34.4035 74.4965 33.0348 73.4987C31.6662 72.5009 30.4219 73.7482 29.1777 72.6256C27.9335 71.5031 27.5602 70.3806 29.1777 69.3828C30.7952 68.3849 31.2929 70.3806 32.2883 70.0064C33.2837 69.6322 33.657 69.7569 34.6523 68.8839C35.6477 68.0108 37.5141 70.7548 38.2606 66.6388C39.0072 62.5228 27.1869 61.8992 25.5694 61.8992C23.9519 61.8992 22.8321 62.4555 22.3344 59.5294C21.9611 57.2843 25.0717 57.9079 25.8183 57.1596C26.5648 56.4112 25.445 56.1618 25.8183 54.9145C26.1915 53.6672 27.3114 54.2909 27.1869 52.2952C27.0625 50.2996 23.3298 51.4222 23.4542 49.4265C23.5787 47.4309 28.2719 48.9775 28.68 46.8672C29.0881 44.7568 28.262 44.5772 24.9175 42.6913C21.573 40.8055 16.7976 42.0901 15.8346 37.6599C15.5708 36.45 16.6508 30.064 18.0742 26.891C19.099 24.7071 20.3174 22.62 21.7148 20.6547C21.7148 20.6547 18.6291 21.4454 10.8825 32.2118C9.10571 34.6814 10.1758 34.2074 9.76267 35.0805C9.2868 36.1369 8.87138 37.2196 8.51844 38.3234L7.02535 41.3168C5.53227 44.3103 3.41708 46.1812 2.79496 48.9251C2.17284 51.6691 3.41708 51.9186 4.16362 53.4153C4.91016 54.912 3.79035 55.1615 2.42169 57.4065C1.05303 59.6516 -0.731202 64.7654 0.306489 66.6363C1.34418 68.5072 2.29726 67.7588 3.66592 66.3868C4.26067 65.7906 4.88034 65.0772 5.38798 64.4586C5.44798 64.3851 5.53147 64.3347 5.62432 64.3158C5.71716 64.297 5.81363 64.3109 5.8974 64.3553C5.98117 64.3996 6.04706 64.4716 6.08392 64.5591C6.12078 64.6466 6.12635 64.7441 6.09965 64.8352C6.00758 65.167 5.90057 65.5237 5.78112 65.8879C5.28343 67.3846 5.159 67.8661 6.65208 68.0083C7.44342 68.0856 7.96351 67.5293 8.27208 67.2425C8.32435 67.1935 8.38972 67.1609 8.46017 67.1486C8.53063 67.1363 8.60315 67.1448 8.66886 67.1731C8.73457 67.2014 8.79065 67.2483 8.83022 67.308C8.8698 67.3677 8.89114 67.4377 8.89171 67.5094L8.76728 69.0061C8.64286 70.5028 8.26959 70.877 9.14055 72.4984C10.0115 74.1199 11.0069 73.7457 11.2558 75.2424C11.5046 76.7391 10.1359 78.61 9.26498 81.4787C8.39401 84.3474 5.53227 90.3343 9.88709 93.0783C14.2419 95.8223 17.1037 86.842 18.2235 86.9667C19.3433 87.0914 17.6013 91.7063 18.5967 91.7063C19.5921 91.7063 20.7119 89.087 21.8317 88.8376C22.9516 88.5881 23.6981 92.4546 25.0668 92.9535C26.4354 93.4525 27.9285 91.7063 29.2972 91.5816C30.6658 91.4568 29.6704 93.5772 31.0391 93.5772C32.4077 93.5772 31.0391 93.5772 32.4077 93.4525C33.7764 93.3277 34.7718 96.5706 36.6381 96.6953C38.5045 96.8201 38.7533 95.8223 39.9976 95.5728C41.2418 95.3233 42.1128 97.9975 43.4815 97.9975C43.8812 98.005 44.2773 97.9196 44.6386 97.748C45.3944 97.3357 45.961 96.6452 46.2188 95.8223C46.2498 95.6491 46.3373 95.4911 46.4676 95.3732C46.5744 95.2967 46.696 95.2435 46.8246 95.2173C46.9533 95.1911 47.0861 95.1924 47.2142 95.2211L53.7165 95.5778C54.2153 95.4949 54.696 95.3261 55.1374 95.0789C48.9405 95.0467 42.8128 93.7703 37.116 91.3252C31.4192 88.8801 26.2687 85.3158 21.9686 80.8426C22.019 80.9633 22.0606 81.0876 22.093 81.2143C22.125 81.3791 22.125 81.5484 22.093 81.7132C22.0798 81.8712 22.084 82.0301 22.1055 82.1872C22.1478 82.504 22.2473 82.8183 22.2622 83.1501C22.2731 83.3165 22.2673 83.4837 22.2449 83.649C22.2121 83.8068 22.1913 83.9669 22.1827 84.1279C22.1895 84.4505 22.2749 84.7665 22.4315 85.0484C22.5828 85.3358 22.7737 85.6003 22.9988 85.8342C22.7672 85.6058 22.5695 85.3454 22.4116 85.0609C22.2457 84.7769 22.1517 84.4566 22.1378 84.1279C22.1424 83.9646 22.1598 83.802 22.1901 83.6415C22.205 83.4822 22.205 83.3218 22.1901 83.1625C22.1677 82.8407 22.0632 82.5339 22.0109 82.2071C21.985 82.0422 21.9766 81.8749 21.9861 81.7082C22.0125 81.5541 22.0074 81.3963 21.9711 81.2442C21.8995 80.9976 21.7984 80.7606 21.67 80.5383C19.6971 78.449 17.9226 76.18 16.3696 73.7607C16.477 74.7308 16.4886 75.7093 16.4044 76.6818C16.354 77.341 16.1854 77.9858 15.9067 78.5851C15.5828 79.1715 15.1312 79.6772 14.5854 80.0643C14.0628 80.461 13.4904 80.8127 13.2689 81.4089C13.0475 82.0051 13.1022 82.6412 13.1868 83.2723C13.273 83.9089 13.4351 84.5328 13.6696 85.1307C13.8982 85.7376 14.2161 86.3068 14.6127 86.8195L14.5953 86.837C14.1372 86.3603 13.7665 85.8063 13.5004 85.2006C13.2284 84.5976 13.0384 83.9608 12.9355 83.3072C12.8818 82.9774 12.856 82.6436 12.8583 82.3094C12.8569 81.9672 12.9229 81.6282 13.0524 81.3116C13.1934 80.9955 13.4075 80.7176 13.677 80.5009C13.9259 80.2838 14.212 80.1017 14.4733 79.9097C15.0075 79.5476 15.4533 79.0692 15.7773 78.5102C16.0503 77.9273 16.2188 77.3008 16.275 76.6593C16.3793 75.6645 16.3851 74.6618 16.2924 73.6659C15.6106 72.6007 14.9661 71.5131 14.3713 70.398C11.4922 64.965 9.61832 58.9232 9.24754 52.7742C9.11332 53.5383 8.87733 54.2808 8.54584 54.9819L8.40398 55.2538C8.35669 55.3436 8.2945 55.4234 8.23727 55.5032C8.12639 55.6793 8.00157 55.8461 7.864 56.0021C7.58443 56.3058 7.26945 56.5746 6.92584 56.8029C6.58476 57.0033 6.26679 57.2409 5.97772 57.5113C5.738 57.8047 5.59538 58.1657 5.56964 58.544C5.41665 59.3236 5.40145 60.124 5.5248 60.9089H5.50244C5.25409 60.131 5.1927 59.3053 5.32328 58.4991C5.34943 58.2928 5.39351 58.0891 5.45512 57.8905C5.52748 57.6835 5.6448 57.4952 5.79856 57.3392C6.11032 57.0656 6.45174 56.828 6.81636 56.6307C7.15509 56.4202 7.4668 56.1689 7.74456 55.8824C7.8812 55.7391 8.00682 55.5857 8.12032 55.4234C8.17506 55.3411 8.23975 55.2637 8.28952 55.1739L8.43636 54.9245C8.80431 54.2157 9.07549 53.4606 9.24262 52.6794V52.6794C9.10395 50.3304 9.1956 47.9734 9.51631 45.6423C9.68221 44.583 9.88709 43.5353 10.131 42.4992C10.3798 41.464 10.6735 40.4413 10.987 39.4285C11.6223 37.4074 12.37 35.4237 13.2267 33.4865C13.6497 32.5161 14.1051 31.5632 14.5779 30.6203C15.0507 29.6774 15.5459 28.7419 16.071 27.8289C17.1089 25.9907 18.273 24.227 19.5548 22.5505L19.719 22.6603C17.6136 26.2554 15.841 30.0363 14.4236 33.9555C13.4453 36.6064 12.6481 39.3209 12.0372 42.0802C12.3302 43.0458 12.6766 43.9944 13.0748 44.9214C13.3264 45.5062 13.6673 46.0482 14.0852 46.5279C14.513 47.0034 15.0964 47.3096 15.73 47.391C15.8846 47.4104 16.0415 47.3968 16.1904 47.3511C16.2651 47.3286 16.3372 47.2987 16.4193 47.2713C16.5079 47.2384 16.6045 47.234 16.6956 47.2588C16.8537 47.3264 16.9929 47.4318 17.1012 47.5656C17.2057 47.6754 17.2978 47.7926 17.3899 47.9099C17.4327 47.8148 17.4825 47.723 17.5391 47.6355C17.6225 47.5126 17.7166 47.3973 17.8204 47.2912C18.0252 47.0832 18.2521 46.8983 18.4972 46.7399C18.741 46.5848 18.9954 46.4472 19.2587 46.3283C19.5199 46.2024 19.7923 46.1013 20.0724 46.0265C20.216 45.9876 20.3641 45.9675 20.5128 45.9666C20.664 45.9726 20.8115 46.0145 20.9433 46.0889C21.0576 46.1681 21.1835 46.2287 21.3166 46.2685C21.453 46.2904 21.5924 46.2862 21.7272 46.256C22.2895 46.129 22.8739 46.1384 23.4318 46.2834C22.8742 46.1581 22.2946 46.1692 21.7422 46.3159C21.5984 46.3524 21.449 46.3617 21.3017 46.3433C21.1595 46.3064 21.0236 46.2484 20.8986 46.1712C20.7791 46.1073 20.6458 46.0738 20.5104 46.0739C20.3728 46.0801 20.2365 46.1036 20.1048 46.1437C19.8358 46.2268 19.5751 46.3345 19.3258 46.4655C19.0746 46.5902 18.8326 46.7328 18.6017 46.8921C18.3753 47.0503 18.1668 47.2326 17.9796 47.4359C17.7999 47.6261 17.664 47.8534 17.5815 48.1019H17.5292C17.6884 48.309 17.8453 48.5135 18.0145 48.7081C18.2128 48.9601 18.4611 49.1682 18.7436 49.3193C19.0322 49.464 19.3358 49.5937 19.617 49.7583C19.8982 49.923 20.1645 50.11 20.4531 50.2572C20.738 50.4139 21.0564 50.4995 21.3813 50.5067C21.5436 50.5081 21.7038 50.469 21.8472 50.3928C21.9906 50.3165 22.1127 50.2056 22.2025 50.0701C22.1144 50.2084 21.9931 50.3222 21.8495 50.4011C21.706 50.4801 21.545 50.5215 21.3813 50.5216C21.0514 50.5161 20.7279 50.4305 20.4382 50.2722C20.1421 50.13 19.8808 49.9379 19.5921 49.7883C19.3035 49.6386 19.0098 49.5064 18.7137 49.3642C18.4209 49.2126 18.1618 49.003 17.9523 48.748C17.7532 48.5285 17.5715 48.294 17.3899 48.0645H17.3376C17.3383 48.0512 17.3383 48.0379 17.3376 48.0246V48.0072C17.2355 47.8824 17.1335 47.7577 17.024 47.643C16.9251 47.5264 16.8008 47.4342 16.6607 47.3735C16.5338 47.3286 16.3895 47.4259 16.2277 47.4733C16.067 47.5239 15.8977 47.5417 15.73 47.5257C15.3968 47.4881 15.0727 47.3927 14.772 47.2438C14.4759 47.0901 14.2075 46.8877 13.9781 46.6451C13.54 46.1574 13.1799 45.6045 12.9106 45.0062C12.5465 44.2029 12.2266 43.3801 11.9525 42.5416C11.7236 43.6567 11.5345 44.7742 11.3926 45.8968C11.2679 46.8992 11.1972 47.9076 11.1811 48.9177C11.1811 49.0573 11.1811 49.202 11.1811 49.3442C11.4725 49.9239 11.7931 50.4884 12.1417 51.0355C12.4581 51.5239 12.8055 51.9913 13.1818 52.4349C13.5544 52.8804 13.9713 53.2866 14.4261 53.6473C15.329 54.3937 16.4285 54.8616 17.5914 54.9943C18.1804 55.0609 18.7742 55.0751 19.3657 55.0367C19.6618 55.0193 19.958 54.9918 20.2541 54.9569L20.697 54.8945L20.9185 54.8571L21.1549 54.8147H21.1698L22.4838 55.2937H22.4986L23.6931 57.0398L22.434 55.351L21.135 54.9345L21.0454 54.9569L20.9334 54.9819L20.7119 55.0268C20.5651 55.0567 20.4158 55.0841 20.2665 55.1091C19.9679 55.1565 19.6693 55.1964 19.3682 55.2263C18.7631 55.2895 18.1536 55.3004 17.5466 55.2587C16.3104 55.1651 15.1271 54.7175 14.1374 53.9691C13.6433 53.6092 13.1872 53.1996 12.7762 52.7468C12.3632 52.3011 11.98 51.8286 11.629 51.3324C11.4797 51.1203 11.3354 50.9008 11.196 50.6813C11.211 51.1004 11.2309 51.5219 11.2558 51.9286C11.3812 53.9666 11.6305 55.9951 12.0023 58.0027C12.3344 59.772 12.7664 61.521 13.2963 63.2412C13.6397 63.8424 14.0105 64.4286 14.4111 64.9874C14.9218 65.7146 15.4928 66.3972 16.1182 67.0279C16.7251 67.6672 17.4481 68.1845 18.2484 68.5521C19.0572 68.8932 19.9329 69.045 20.809 68.9961C21.2462 68.9713 21.6802 68.9062 22.1055 68.8015C22.5303 68.6951 22.9463 68.5558 23.3497 68.3849C23.5563 68.3101 23.7479 68.2053 23.9494 68.1155C24.151 68.0257 24.3675 67.921 24.579 67.8287C24.7905 67.7364 25.0145 67.669 25.2335 67.6017C25.4525 67.5343 25.6765 67.467 25.8979 67.4146C26.7894 67.2089 27.6969 67.0803 28.6103 67.0304C29.5167 66.9735 30.4261 66.9876 31.3303 67.0728V67.1227C29.5411 67.195 27.7641 67.4516 26.0273 67.8885C25.8133 67.9409 25.6068 68.0133 25.3928 68.0756C25.1787 68.138 24.9822 68.2253 24.7756 68.3001L24.1734 68.5496C23.9619 68.6394 23.7578 68.7467 23.5364 68.8215C23.1043 68.9878 22.66 69.1205 22.2075 69.2181C21.7525 69.3104 21.2904 69.363 20.8264 69.3753C20.3608 69.3824 19.8957 69.3432 19.4379 69.258C18.982 69.1681 18.5384 69.024 18.1165 68.829C17.2937 68.4248 16.5555 67.8669 15.9416 67.1851C15.3306 66.5255 14.7785 65.8135 14.2917 65.0573C13.9748 64.575 13.6804 64.0819 13.4083 63.578C13.4456 63.6952 13.478 63.8125 13.5178 63.9297C14.1613 65.899 14.9481 67.8183 15.8719 69.6721C17.3352 72.6147 19.1232 75.3834 21.2022 77.9265C22.1577 78.2383 23.1083 78.5601 24.0714 78.837C25.1495 79.1717 26.2568 79.403 27.3786 79.528C27.9343 79.5833 28.4936 79.5924 29.0508 79.5554C29.3295 79.5554 29.5983 79.508 29.882 79.4831C30.1657 79.4582 30.4568 79.4307 30.743 79.4157C31.3194 79.3879 31.897 79.3962 32.4724 79.4407C33.0516 79.4738 33.6231 79.5897 34.1696 79.7849L34.1546 79.8298C33.875 79.7929 33.5932 79.7745 33.3111 79.775C33.0274 79.775 32.7462 79.775 32.465 79.775C31.9026 79.7966 31.341 79.8365 30.7803 79.8947L29.9392 79.9795C29.6555 79.9995 29.3569 80.0294 29.0682 80.0294C28.4854 80.0314 27.9032 79.9905 27.3263 79.9072C26.1906 79.7304 25.0741 79.4464 23.9917 79.059C23.0809 78.7397 22.1876 78.383 21.2943 78.0313C24.4447 81.877 28.2022 85.1794 32.4177 87.8073C39.3574 92.1253 47.3031 94.5487 55.4659 94.8369C56.0208 94.4004 56.404 93.6994 56.0357 92.6143Z" fill="#345587"/>
<path d="M57.3391 2.54443C49.8158 2.54517 42.4038 4.36554 35.7322 7.85101C29.0607 11.3365 23.3265 16.3842 19.0166 22.5655C20.8854 20.8692 21.7116 20.6572 21.7116 20.6572C21.7116 20.6572 20.7785 21.9444 19.7358 23.713C23.9115 17.5757 29.5188 12.5531 36.0706 9.08139C42.6225 5.6097 49.9207 3.7939 57.3316 3.7917C82.4452 3.7917 102.871 24.2718 102.871 49.4415C102.871 74.6113 82.4402 95.0914 57.3316 95.0914C56.6099 95.0914 55.8908 95.0714 55.1766 95.039C54.7209 95.3047 54.2209 95.4855 53.7009 95.5728L47.1986 95.2161H47.1015C50.4597 95.9691 53.8904 96.3489 57.3316 96.3486C83.1295 96.3486 104.115 75.3073 104.115 49.4515C104.115 23.5958 83.137 2.54443 57.3391 2.54443Z" fill="#345587"/>
</g>
<defs>
<clipPath id="clip0_24757_309375">
<rect width="104.125" height="98" fill="white"/>
</clipPath>
</defs>
</svg>
