<svg width="101" height="16" viewBox="0 0 101 16" fill="none" xmlns="http://www.w3.org/2000/svg">
<path d="M18.107 1.757L14.269 15H12.331L9.253 4.341L6.061 15L4.142 15.019L0.437 1.757H2.28L5.168 12.986L8.36 1.757H10.298L13.338 12.948L16.245 1.757H18.107ZM25.1671 4.398C25.9525 4.398 26.6618 4.569 27.2951 4.911C27.9285 5.24033 28.4225 5.74067 28.7771 6.412C29.1445 7.08333 29.3281 7.90033 29.3281 8.863V15H27.6181V9.11C27.6181 8.07133 27.3585 7.27967 26.8391 6.735C26.3198 6.17767 25.6105 5.899 24.7111 5.899C23.7991 5.899 23.0708 6.184 22.5261 6.754C21.9941 7.324 21.7281 8.15367 21.7281 9.243V15H19.9991V0.94H21.7281V6.07C22.0701 5.538 22.5388 5.12633 23.1341 4.835C23.7421 4.54367 24.4198 4.398 25.1671 4.398ZM33.0455 2.897C32.7161 2.897 32.4375 2.783 32.2095 2.555C31.9815 2.327 31.8675 2.04833 31.8675 1.719C31.8675 1.38967 31.9815 1.111 32.2095 0.882999C32.4375 0.654999 32.7161 0.540999 33.0455 0.540999C33.3621 0.540999 33.6281 0.654999 33.8435 0.882999C34.0715 1.111 34.1855 1.38967 34.1855 1.719C34.1855 2.04833 34.0715 2.327 33.8435 2.555C33.6281 2.783 33.3621 2.897 33.0455 2.897ZM33.8815 4.588V15H32.1525V4.588H33.8815ZM38.9372 6.013V12.15C38.9372 12.6567 39.0449 13.0177 39.2602 13.233C39.4756 13.4357 39.8492 13.537 40.3812 13.537H41.6542V15H40.0962C39.1336 15 38.4116 14.7783 37.9302 14.335C37.4489 13.8917 37.2082 13.1633 37.2082 12.15V6.013H35.8592V4.588H37.2082V1.966H38.9372V4.588H41.6542V6.013H38.9372ZM53.2491 9.395C53.2491 9.72433 53.2301 10.0727 53.1921 10.44H44.8701C44.9335 11.466 45.2818 12.2703 45.9151 12.853C46.5611 13.423 47.3401 13.708 48.2521 13.708C48.9995 13.708 49.6201 13.537 50.1141 13.195C50.6208 12.8403 50.9755 12.3717 51.1781 11.789H53.0401C52.7615 12.7897 52.2041 13.6067 51.3681 14.24C50.5321 14.8607 49.4935 15.171 48.2521 15.171C47.2641 15.171 46.3775 14.9493 45.5921 14.506C44.8195 14.0627 44.2115 13.4357 43.7681 12.625C43.3248 11.8017 43.1031 10.8517 43.1031 9.775C43.1031 8.69833 43.3185 7.75467 43.7491 6.944C44.1798 6.13333 44.7815 5.51267 45.5541 5.082C46.3395 4.63867 47.2388 4.417 48.2521 4.417C49.2401 4.417 50.1141 4.63233 50.8741 5.063C51.6341 5.49367 52.2168 6.089 52.6221 6.849C53.0401 7.59633 53.2491 8.445 53.2491 9.395ZM51.4631 9.034C51.4631 8.37533 51.3175 7.81167 51.0261 7.343C50.7348 6.86167 50.3358 6.50067 49.8291 6.26C49.3351 6.00667 48.7841 5.88 48.1761 5.88C47.3021 5.88 46.5548 6.15867 45.9341 6.716C45.3261 7.27333 44.9778 8.046 44.8891 9.034H51.4631ZM61.5354 15.133C60.3067 15.133 59.1857 14.848 58.1724 14.278C57.159 13.6953 56.3547 12.891 55.7594 11.865C55.1767 10.8263 54.8854 9.661 54.8854 8.369C54.8854 7.077 55.1767 5.918 55.7594 4.892C56.3547 3.85333 57.159 3.049 58.1724 2.479C59.1857 1.89633 60.3067 1.605 61.5354 1.605C62.7767 1.605 63.904 1.89633 64.9174 2.479C65.9307 3.049 66.7287 3.847 67.3114 4.873C67.894 5.899 68.1854 7.06433 68.1854 8.369C68.1854 9.67367 67.894 10.839 67.3114 11.865C66.7287 12.891 65.9307 13.6953 64.9174 14.278C63.904 14.848 62.7767 15.133 61.5354 15.133ZM61.5354 13.632C62.46 13.632 63.2897 13.4167 64.0244 12.986C64.7717 12.5553 65.3544 11.941 65.7724 11.143C66.203 10.345 66.4184 9.42033 66.4184 8.369C66.4184 7.305 66.203 6.38033 65.7724 5.595C65.3544 4.797 64.778 4.18267 64.0434 3.752C63.3087 3.32133 62.4727 3.106 61.5354 3.106C60.598 3.106 59.762 3.32133 59.0274 3.752C58.2927 4.18267 57.71 4.797 57.2794 5.595C56.8614 6.38033 56.6524 7.305 56.6524 8.369C56.6524 9.42033 56.8614 10.345 57.2794 11.143C57.71 11.941 58.2927 12.5553 59.0274 12.986C59.7747 13.4167 60.6107 13.632 61.5354 13.632ZM69.8219 9.756C69.8219 8.692 70.0372 7.761 70.4679 6.963C70.8985 6.15233 71.4875 5.52533 72.2349 5.082C72.9949 4.63867 73.8372 4.417 74.7619 4.417C75.6739 4.417 76.4656 4.61333 77.1369 5.006C77.8082 5.39867 78.3086 5.89267 78.6379 6.488V4.588H80.3859V15H78.6379V13.062C78.2959 13.67 77.7829 14.1767 77.0989 14.582C76.4275 14.9747 75.6422 15.171 74.7429 15.171C73.8182 15.171 72.9822 14.943 72.2349 14.487C71.4875 14.031 70.8985 13.3913 70.4679 12.568C70.0372 11.7447 69.8219 10.8073 69.8219 9.756ZM78.6379 9.775C78.6379 8.98967 78.4795 8.30567 78.1629 7.723C77.8462 7.14033 77.4155 6.697 76.8709 6.393C76.3389 6.07633 75.7499 5.918 75.1039 5.918C74.4579 5.918 73.8689 6.07 73.3369 6.374C72.8049 6.678 72.3805 7.12133 72.0639 7.704C71.7472 8.28667 71.5889 8.97067 71.5889 9.756C71.5889 10.554 71.7472 11.2507 72.0639 11.846C72.3805 12.4287 72.8049 12.8783 73.3369 13.195C73.8689 13.499 74.4579 13.651 75.1039 13.651C75.7499 13.651 76.3389 13.499 76.8709 13.195C77.4155 12.8783 77.8462 12.4287 78.1629 11.846C78.4795 11.2507 78.6379 10.5603 78.6379 9.775ZM89.1217 15L85.0367 10.402V15H83.3077V0.94H85.0367V9.205L89.0457 4.588H91.4587L86.5567 9.775L91.4777 15H89.1217ZM96.772 15.171C95.974 15.171 95.2584 15.038 94.625 14.772C93.9917 14.4933 93.4914 14.1133 93.124 13.632C92.7567 13.138 92.554 12.5743 92.516 11.941H94.302C94.3527 12.4603 94.5934 12.8847 95.024 13.214C95.4674 13.5433 96.0437 13.708 96.753 13.708C97.4117 13.708 97.931 13.5623 98.311 13.271C98.691 12.9797 98.881 12.6123 98.881 12.169C98.881 11.713 98.6784 11.3773 98.273 11.162C97.8677 10.934 97.2407 10.7123 96.392 10.497C95.6194 10.2943 94.986 10.0917 94.492 9.889C94.0107 9.67367 93.5927 9.36333 93.238 8.958C92.896 8.54 92.725 7.99533 92.725 7.324C92.725 6.792 92.8834 6.30433 93.2 5.861C93.5167 5.41767 93.9664 5.06933 94.549 4.816C95.1317 4.55 95.7967 4.417 96.544 4.417C97.6967 4.417 98.6277 4.70833 99.337 5.291C100.046 5.87367 100.426 6.67167 100.477 7.685H98.748C98.71 7.14033 98.4884 6.70333 98.083 6.374C97.6904 6.04467 97.1584 5.88 96.487 5.88C95.8664 5.88 95.3724 6.013 95.005 6.279C94.6377 6.545 94.454 6.89333 94.454 7.324C94.454 7.666 94.5617 7.951 94.777 8.179C95.005 8.39433 95.2837 8.57167 95.613 8.711C95.955 8.83767 96.4237 8.98333 97.019 9.148C97.7664 9.35067 98.3744 9.55333 98.843 9.756C99.3117 9.946 99.7107 10.2373 100.04 10.63C100.382 11.0227 100.559 11.5357 100.572 12.169C100.572 12.739 100.414 13.252 100.097 13.708C99.7804 14.164 99.3307 14.525 98.748 14.791C98.178 15.0443 97.5194 15.171 96.772 15.171Z" fill="#345587"/>
</svg>
